<?xml version="1.0" encoding="UTF-8" standalone="no"?>
<!-- Created with Inkscape (http://www.inkscape.org/) -->

<svg
   width="400.97354mm"
   height="142.0536mm"
   viewBox="0 0 400.97354 142.0536"
   version="1.1"
   id="svg1"
   inkscape:version="1.3 (0e150ed6c4, 2023-07-21)"
   sodipodi:docname="dibujo.svg"
   xmlns:inkscape="http://www.inkscape.org/namespaces/inkscape"
   xmlns:sodipodi="http://sodipodi.sourceforge.net/DTD/sodipodi-0.dtd"
   xmlns="http://www.w3.org/2000/svg"
   xmlns:svg="http://www.w3.org/2000/svg">
  <sodipodi:namedview
     id="namedview1"
     pagecolor="#ffffff"
     bordercolor="#999999"
     borderopacity="1"
     inkscape:showpageshadow="2"
     inkscape:pageopacity="0"
     inkscape:pagecheckerboard="0"
     inkscape:deskcolor="#d1d1d1"
     inkscape:document-units="mm"
     inkscape:zoom="0.32063344"
     inkscape:cx="594.1364"
     inkscape:cy="787.50363"
     inkscape:window-width="1366"
     inkscape:window-height="705"
     inkscape:window-x="-8"
     inkscape:window-y="-8"
     inkscape:window-maximized="1"
     inkscape:current-layer="layer1"
     showguides="true" />
  <defs
     id="defs1">
    <clipPath
       clipPathUnits="userSpaceOnUse"
       id="clipPath91">
      <path
         d="M 0,1080 H 1080 V 0 H 0 Z"
         transform="translate(-597.36039,-542.62702)"
         id="path91" />
    </clipPath>
    <clipPath
       clipPathUnits="userSpaceOnUse"
       id="clipPath89">
      <path
         d="M 0,1080 H 1080 V 0 H 0 Z"
         transform="translate(-396.78811,-575.75542)"
         id="path89" />
    </clipPath>
    <clipPath
       clipPathUnits="userSpaceOnUse"
       id="clipPath93">
      <path
         d="M 0,1080 H 1080 V 0 H 0 Z"
         transform="translate(-255.00001,-625.32182)"
         id="path93" />
    </clipPath>
  </defs>
  <g
     inkscape:label="logo"
     inkscape:groupmode="layer"
     id="layer1"
     transform="translate(-82.99997,-213.49901)">
    <g
       id="g3"
       inkscape:export-filename="g3.svg"
       inkscape:export-xdpi="96"
       inkscape:export-ydpi="96">
      <g
         id="g2"
         inkscape:export-filename="logomareh_blanco.svg"
         inkscape:export-xdpi="96"
         inkscape:export-ydpi="96"
         style="fill:#000000">
        <path
           style="font-weight:600;font-size:99.1159px;font-family:Poppins;-inkscape-font-specification:'Poppins Semi-Bold';letter-spacing:-4.49792px;fill:#000000;stroke-width:8.25965"
           d="m 273.16807,326.72987 q 0,-8.32573 3.27083,-14.76827 3.36994,-6.44253 9.01954,-9.91158 5.74873,-3.46906 12.78595,-3.46906 6.14519,0 10.70452,2.4779 4.65845,2.47789 7.43369,6.2443 V 299.473 h 13.97535 v 54.91021 H 316.3826 v -8.02839 q -2.67613,3.86552 -7.43369,6.44253 -4.65845,2.4779 -10.80363,2.4779 -6.93811,0 -12.68684,-3.56817 -5.6496,-3.56817 -9.01954,-10.01071 -3.27083,-6.54165 -3.27083,-14.9665 z m 43.21453,0.19824 q 0,-5.05492 -1.98231,-8.62309 -1.98232,-3.66729 -5.35226,-5.55049 -3.36994,-1.98232 -7.23546,-1.98232 -3.86552,0 -7.13635,1.88321 -3.27082,1.8832 -5.35226,5.55049 -1.98231,3.56817 -1.98231,8.52396 0,4.9558 1.98231,8.7222 2.08144,3.66729 5.35226,5.64961 3.36994,1.98232 7.13635,1.98232 3.86552,0 7.23546,-1.88321 3.36994,-1.98231 5.35226,-5.55049 1.98231,-3.66728 1.98231,-8.72219 z m 36.93248,-18.93114 q 2.67613,-4.3611 6.93811,-6.839 4.3611,-2.4779 9.91159,-2.4779 v 14.57004 h -3.66729 q -6.54164,0 -9.91159,3.07259 -3.27082,3.0726 -3.27082,10.70452 v 27.35599 H 339.43885 V 299.473 h 13.87623 z m 72.7133,17.74174 q 0,2.97348 -0.39647,5.35226 h -40.14194 q 0.49558,5.94696 4.16287,9.3169 3.66729,3.36994 9.01955,3.36994 7.73104,0 11.00186,-6.64077 h 14.9665 q -2.37878,7.92927 -9.11866,13.0833 -6.73988,5.05491 -16.55235,5.05491 -7.92928,0 -14.27269,-3.46905 -6.24431,-3.56818 -9.81248,-10.01071 -3.46905,-6.44253 -3.46905,-14.86738 0,-8.52397 3.46905,-14.96651 3.46906,-6.44253 9.71336,-9.91158 6.2443,-3.46906 14.37181,-3.46906 7.83015,0 13.97534,3.36994 6.2443,3.36994 9.61424,9.61424 3.46906,6.14519 3.46906,14.17357 z m -14.37181,-3.96463 q -0.0991,-5.35226 -3.86552,-8.52397 -3.7664,-3.27082 -9.21778,-3.27082 -5.15402,0 -8.7222,3.17171 -3.46905,3.07259 -4.26198,8.62308 z m 50.90793,-23.09401 q 6.2443,0 11.10098,2.77525 4.85668,2.67613 7.53281,8.02839 2.77525,5.25314 2.77525,12.68683 v 32.21267 h -13.87623 v -30.32947 q 0,-6.54164 -3.27082,-10.0107 -3.27083,-3.56817 -8.92043,-3.56817 -5.74873,0 -9.11867,3.56817 -3.27082,3.46906 -3.27082,10.0107 v 30.32947 h -13.87623 v -73.34577 h 13.87623 V 306.312 q 2.67613,-3.56817 7.13634,-5.55049 4.46022,-2.08144 9.91159,-2.08144 z"
           id="path3"
           inkscape:label="text1"
           aria-label="areh" />
      </g>
      <g
         id="g1"
         transform="matrix(0.58599322,0,0,0.58599322,65.121595,115.97039)"
         style="fill:#000000">
        <path
           id="path88"
           d="m 0,0 -7.534,-13.284 -40.002,60.815 -114.633,-201.935 c -1.704,-3.013 -4.911,-4.878 -8.377,-4.878 h -61.917 c -7.382,0 -12.025,7.957 -8.378,14.374 l 119.43,210.399 c 1.714,3.013 4.912,4.878 8.378,4.878 h 61.917 c 4.432,0 7.86,-2.85 9.124,-6.523 z"
           style="fill:#000000;fill-opacity:1;fill-rule:nonzero;stroke:none"
           transform="matrix(0.98018918,0,0,-0.98018918,267.82419,252.72164)"
           clip-path="url(#clipPath89)" />
        <path
           id="path90"
           d="m 0,0 -71.28,101.393 -126.736,-223.271 c -1.503,-2.64 -4.308,-4.275 -7.352,-4.275 h -71.118 c -6.473,0 -10.541,6.972 -7.344,12.595 l 75.724,133.403 7.534,13.283 47.546,83.758 c 1.504,2.639 4.308,4.275 7.353,4.275 h 71.117 c 4.213,0 7.411,-2.965 8.244,-6.58 z"
           style="fill:#000000;fill-opacity:1;fill-rule:nonzero;stroke:none"
           transform="matrix(0.98018918,0,0,-0.98018918,460.92198,285.19374)"
           clip-path="url(#clipPath91)" />
        <path
           id="path92"
           d="m 0,0 v 23.074 c 0,3.622 -2.939,6.558 -6.565,6.558 h -44.346 c -3.626,0 -6.566,-2.936 -6.566,-6.558 v -125.931 h 0.072 L -0.854,-3.235 C -0.295,-2.249 0,-1.134 0,0"
           style="fill:#000000;fill-opacity:1;fill-rule:nonzero;stroke:none"
           transform="matrix(0.98018918,0,0,-0.98018918,128.84503,204.13717)"
           clip-path="url(#clipPath93)" />
      </g>
    </g>
  </g>
</svg>
